<?xml version="1.0" standalone="no"?>
<!DOCTYPE svg PUBLIC "-//W3C//DTD SVG 20010904//EN"
 "http://www.w3.org/TR/2001/REC-SVG-20010904/DTD/svg10.dtd">
<svg version="1.0" xmlns="http://www.w3.org/2000/svg"
 width="996.000000pt" height="996.000000pt" viewBox="0 0 996.000000 996.000000"
 preserveAspectRatio="xMidYMid meet">
<metadata>
Created by potrace 1.11, written by Peter Selinger 2001-2013
</metadata>
<g transform="translate(0.000000,996.000000) scale(0.100000,-0.100000)"
fill="#000000" stroke="none">
<path d="M9095 9904 c-1086 -285 -2030 -749 -2762 -1360 -62 -52 -116 -94
-120 -94 -4 0 -61 23 -126 50 -277 118 -705 247 -1030 311 -160 32 -170 32
-245 20 -278 -46 -662 -156 -1006 -288 -106 -41 -174 -62 -181 -57 -7 5 -72
58 -146 117 -492 397 -1233 805 -2056 1131 -216 86 -549 206 -571 206 -12 0
-13 -13 -7 -77 16 -183 122 -543 255 -868 34 -82 64 -157 67 -165 10 -24 -61
63 -141 174 -70 95 -201 299 -242 376 l-19 35 -3 -42 c-7 -95 58 -292 169
-511 l67 -133 -47 44 c-69 65 -225 166 -237 154 -8 -8 48 -163 96 -265 224
-472 681 -835 1313 -1042 68 -22 68 -22 50 -44 l-18 -21 22 19 c22 19 24 18
115 -7 117 -32 258 -62 368 -77 213 -30 484 -112 675 -205 345 -169 607 -416
802 -756 51 -89 149 -307 141 -314 -2 -2 -24 21 -48 51 -107 132 -302 253
-475 296 -72 17 -117 22 -225 21 -157 -1 -247 -20 -373 -81 l-79 -37 114 0
c101 0 119 -3 168 -26 85 -41 144 -99 187 -187 36 -72 38 -81 38 -172 0 -91
-2 -100 -38 -172 -43 -87 -98 -142 -186 -185 -50 -25 -67 -28 -161 -28 -97 0
-110 2 -170 31 -184 87 -271 296 -204 488 8 21 13 41 11 42 -8 8 -110 -160
-136 -223 -52 -127 -66 -204 -65 -358 1 -164 20 -249 85 -384 110 -232 299
-395 549 -476 72 -24 107 -28 232 -33 128 -4 161 -1 242 17 159 37 296 112
420 230 119 114 208 262 246 408 9 37 20 61 24 54 10 -16 13 -395 3 -521 l-8
-105 38 71 c52 96 105 165 162 213 54 45 156 96 214 105 l37 7 0 -906 c0 -498
-4 -905 -8 -905 -23 0 -156 106 -218 174 -159 172 -260 415 -300 720 -19 140
-15 211 19 349 15 58 20 93 13 85 -7 -7 -53 -62 -102 -123 -231 -285 -504
-510 -789 -651 -150 -74 -269 -114 -427 -146 -159 -32 -440 -32 -610 0 -301
56 -592 178 -901 379 -259 167 -550 417 -769 660 l-112 125 -13 -48 c-20 -78
-61 -328 -78 -469 -17 -152 -20 -515 -5 -685 91 -1002 620 -1901 1483 -2523
116 -84 262 -177 276 -177 21 0 98 327 128 540 22 159 25 621 5 785 -18 143
-57 355 -88 478 l-25 98 23 28 c51 63 553 611 559 611 4 0 141 -125 305 -277
163 -153 302 -277 309 -277 7 1 169 103 362 227 192 124 356 229 364 232 29
11 201 -189 334 -390 80 -121 175 -283 226 -387 18 -38 36 -68 39 -68 3 0 30
47 60 103 71 131 201 327 296 443 98 122 272 288 287 276 42 -32 636 -442 641
-442 3 0 155 83 337 185 l330 185 266 -247 c254 -236 265 -247 260 -277 -3
-17 -17 -80 -31 -141 -94 -409 -94 -860 0 -1306 27 -131 81 -330 93 -342 10
-10 220 164 366 304 626 605 1053 1373 1204 2161 80 415 87 881 20 1301 -6 37
-14 67 -18 67 -5 0 -63 -61 -130 -135 -290 -319 -668 -616 -999 -783 -344
-174 -615 -240 -932 -229 -245 9 -427 55 -641 163 -211 105 -447 286 -615 470
-90 99 -246 290 -265 326 -28 51 -23 531 8 723 6 38 7 37 20 -38 57 -338 336
-627 689 -714 104 -25 304 -23 416 5 272 67 489 248 608 506 52 112 71 191 77
328 14 289 -82 523 -295 719 -114 105 -266 183 -414 213 -96 20 -290 21 -378
2 -155 -33 -311 -115 -435 -227 l-59 -54 43 80 c98 179 210 326 380 495 75 75
182 171 239 214 237 180 533 332 792 409 96 28 422 82 445 73 8 -3 14 -1 12 5
-1 6 49 23 112 39 672 172 1211 529 1538 1019 86 129 194 344 180 358 -2 2
-98 -67 -213 -154 -115 -86 -225 -168 -244 -182 -25 -19 -16 -4 36 55 95 111
185 240 270 389 71 124 169 333 160 342 -2 3 -123 -96 -268 -220 -145 -123
-264 -223 -266 -222 -2 2 29 44 68 95 166 218 290 475 334 693 24 123 30 197
14 196 -7 0 -89 -20 -183 -45z m-2310 -3509 c33 -16 81 -50 107 -76 192 -193
136 -516 -112 -633 -59 -28 -74 -31 -165 -31 -92 0 -106 3 -167 32 -85 40
-151 106 -191 191 -29 61 -32 76 -32 162 0 82 4 103 27 153 15 32 37 71 48 87
33 46 104 100 167 126 51 22 71 24 158 22 87 -3 108 -7 160 -33z"/>
<path d="M4140 2462 c434 -320 1001 -345 1530 -66 84 44 158 95 115 78 -289
-112 -505 -154 -787 -154 -260 0 -480 37 -728 121 -196 67 -192 66 -130 21z"/>
<path d="M3370 2152 c0 -4 24 -22 53 -39 148 -90 288 -123 437 -105 106 13
227 52 306 98 63 38 62 38 -65 -1 -125 -38 -250 -50 -379 -36 -106 11 -241 43
-314 74 -21 9 -38 13 -38 9z"/>
<path d="M5600 2071 c40 -34 180 -100 250 -117 89 -23 268 -15 365 16 72 23
199 83 209 98 3 5 -23 -1 -58 -14 -197 -71 -459 -72 -678 0 -40 13 -82 27 -93
31 -16 6 -15 3 5 -14z"/>
<path d="M4020 1870 c51 -41 201 -109 276 -125 92 -21 274 -16 369 10 60 16
271 113 263 120 -2 3 -36 -7 -75 -20 -127 -44 -209 -58 -358 -58 -157 -1 -258
15 -400 63 -104 35 -108 36 -75 10z"/>
<path d="M5018 1853 c61 -47 154 -96 227 -120 71 -23 96 -26 215 -26 118 0
146 3 225 27 81 25 251 103 242 112 -2 2 -37 -7 -77 -21 -226 -77 -509 -74
-746 9 -38 13 -78 27 -89 30 -17 6 -16 4 3 -11z"/>
<path d="M6974 884 c-18 -14 -18 -15 4 -4 12 6 22 13 22 15 0 8 -5 6 -26 -11z"/>
</g>
</svg>
